<?xml version="1.0" encoding="iso-8859-1"?>
<!-- Generator: Adobe Illustrator 19.0.0, SVG Export Plug-In . SVG Version: 6.00 Build 0)  -->
<svg xmlns="http://www.w3.org/2000/svg" xmlns:xlink="http://www.w3.org/1999/xlink" version="1.1" id="Capa_1" x="0px" y="0px" viewBox="0 0 512 512" style="enable-background:new 0 0 512 512;" xml:space="preserve" width="512px" height="512px">
<g>
	<g>
		<g>
			<path d="M400.192,327.96c10.302-21.337,15.703-44.707,15.808-68.4c0.003-9.36-0.811-18.702-2.432-27.92l-31.504,5.568     c1.288,7.381,1.936,14.859,1.936,22.352c-0.009,16.51-3.226,32.861-9.472,48.144c-11.681-5.821-24.599-8.725-37.648-8.464     c-27.382,0.586-52.538,15.213-66.592,38.72l-18.384,30.56l-22.496-33.76c-20.28-30.615-58.896-43.348-93.408-30.8     c-5.333-14.194-8.044-29.238-8-44.4c0.071-70.763,57.493-128.07,128.257-127.999c12.091,0.012,24.12,1.736,35.727,5.119     l8.976-30.72c-84.911-24.751-173.81,24.018-198.561,108.929c-4.231,14.514-6.385,29.553-6.399,44.671     c0.012,20.988,4.251,41.758,12.464,61.072c-5.528,5.109-10.31,10.969-14.208,17.408L2.288,491.32l27.424,16.48l91.968-153.28     c13.63-22.737,43.112-30.12,65.849-16.49c6.099,3.656,11.31,8.622,15.255,14.538L306.688,508.44l26.624-17.76l-61.76-92.64     l26.16-43.536c8.433-14.13,23.549-22.921,40-23.264c16.528-0.632,32.171,7.475,41.184,21.344l103.84,155.856l26.624-17.76     L405.456,334.76C403.83,332.396,402.073,330.126,400.192,327.96z" fill="#FFFFFF"/>
			<path d="M362.576,140.232c-8.84-7.908-18.531-14.809-28.896-20.576l-15.552,27.904c8.289,4.606,16.038,10.123,23.104,16.448     L362.576,140.232z" fill="#FFFFFF"/>
			<path d="M374.08,209.96l29.504-12.432c-4.617-10.924-10.423-21.307-17.312-30.96l-26.032,18.624     C365.747,192.916,370.388,201.222,374.08,209.96z" fill="#FFFFFF"/>
			<rect x="240" y="3.56" width="32" height="64" fill="#FFFFFF"/>
			<rect x="49.615" y="69.176" transform="matrix(0.7071 0.7071 -0.7071 0.7071 84.1329 -32.763)" width="64" height="32" fill="#FFFFFF"/>
			<rect x="448" y="243.56" width="64" height="32" fill="#FFFFFF"/>
			<rect y="243.56" width="64" height="32" fill="#FFFFFF"/>
			<rect x="414.404" y="53.171" transform="matrix(0.7071 0.7071 -0.7071 0.7071 186.288 -279.3955)" width="32" height="64" fill="#FFFFFF"/>
		</g>
	</g>
</g>
<g>
</g>
<g>
</g>
<g>
</g>
<g>
</g>
<g>
</g>
<g>
</g>
<g>
</g>
<g>
</g>
<g>
</g>
<g>
</g>
<g>
</g>
<g>
</g>
<g>
</g>
<g>
</g>
<g>
</g>
</svg>
